<?xml version="1.0" standalone="no"?><!DOCTYPE svg PUBLIC "-//W3C//DTD SVG 1.1//EN" "http://www.w3.org/Graphics/SVG/1.1/DTD/svg11.dtd"><svg t="1756146170602" class="icon" viewBox="0 0 1024 1024" version="1.1" xmlns="http://www.w3.org/2000/svg" p-id="1955" xmlns:xlink="http://www.w3.org/1999/xlink" width="256" height="256"><path d="M301.511111 708.266667c-86.755556 0-157.866667-71.111111-157.866667-157.866667s71.111111-157.866667 157.866667-157.866667 157.866667 71.111111 157.866667 157.866667c0 88.177778-71.111111 157.866667-157.866667 157.866667z m0-258.844445c-55.466667 0-100.977778 45.511111-100.977778 100.977778s45.511111 100.977778 100.977778 100.977778 100.977778-45.511111 100.977778-100.977778-45.511111-100.977778-100.977778-100.977778zM782.222222 708.266667c-86.755556 0-157.866667-71.111111-157.866666-157.866667s71.111111-157.866667 157.866666-157.866667 157.866667 71.111111 157.866667 157.866667-71.111111 157.866667-157.866667 157.866667z m0-258.844445c-55.466667 0-100.977778 45.511111-100.977778 100.977778s45.511111 100.977778 100.977778 100.977778 100.977778-45.511111 100.977778-100.977778-45.511111-100.977778-100.977778-100.977778z" fill="#3FA6AD" p-id="1956"></path><path d="M661.333333 627.2c-11.377778 0-21.333333-7.111111-25.6-17.066667-15.644444-38.4-52.622222-62.577778-93.866666-62.577777-41.244444 0-78.222222 24.177778-93.866667 62.577777-5.688889 14.222222-22.755556 21.333333-36.977778 15.644445-14.222222-5.688889-21.333333-22.755556-15.644444-36.977778 24.177778-59.733333 82.488889-98.133333 146.488889-98.133333s120.888889 38.4 146.488889 98.133333c5.688889 14.222222-1.422222 31.288889-15.644445 36.977778-4.266667 0-8.533333 1.422222-11.377778 1.422222z" fill="#DC4569" p-id="1957"></path></svg>